<?xml version="1.0" encoding="UTF-8"?>
<svg xmlns="http://www.w3.org/2000/svg" xmlns:xlink="http://www.w3.org/1999/xlink" width="40px" height="40px" viewBox="0 0 40 40" version="1.1">
<g id="surface1">
<path style=" stroke:none;fill-rule:nonzero;fill:rgb(67.058824%,61.960784%,52.156863%);fill-opacity:1;" d="M 20 4.609375 C 20.34375 4.453125 21.5 3.75 21.984375 1 L 18.015625 1 C 18.421875 4.03125 19.921875 4.578125 20 4.609375 Z M 20 4.609375 "/>
<path style=" stroke:none;fill-rule:nonzero;fill:rgb(78.039216%,74.509804%,65.882353%);fill-opacity:1;" d="M 18.625 4.828125 C 18.0625 4.234375 17.4375 3.21875 17.09375 1.484375 L 16.484375 2.03125 C 16.484375 2.453125 16.625 3.640625 17.640625 5.203125 C 17.984375 5.125 18.359375 4.984375 18.625 4.828125 Z M 18.625 4.828125 "/>
<path style=" stroke:none;fill-rule:nonzero;fill:rgb(78.039216%,74.509804%,65.882353%);fill-opacity:1;" d="M 19.5 5.484375 C 19.484375 5.46875 19.46875 5.46875 19.453125 5.453125 C 18.703125 6.09375 17.4375 6.265625 17.40625 6.265625 C 17.25 6.265625 17.09375 6.1875 17 6.046875 C 16.90625 5.90625 16.8125 5.78125 16.734375 5.640625 L 14.046875 5.640625 C 14.0625 6.4375 14.015625 7.34375 13.84375 8.265625 L 19.5 8.265625 Z M 19.5 5.484375 "/>
<path style=" stroke:none;fill-rule:nonzero;fill:rgb(49.411765%,43.529412%,51.372549%);fill-opacity:1;" d="M 16.171875 4.640625 C 15.875 4.015625 15.703125 3.46875 15.59375 3.03125 L 13.890625 3.59375 C 13.921875 3.859375 13.96875 4.21875 14 4.640625 Z M 16.171875 4.640625 "/>
<path style=" stroke:none;fill-rule:nonzero;fill:rgb(49.411765%,43.529412%,51.372549%);fill-opacity:1;" d="M 26.109375 3.609375 L 24.390625 3.046875 C 24.296875 3.5 24.125 4.03125 23.828125 4.640625 L 26 4.640625 C 26.03125 4.21875 26.078125 3.875 26.109375 3.609375 Z M 26.109375 3.609375 "/>
<path style=" stroke:none;fill-rule:nonzero;fill:rgb(78.039216%,74.509804%,65.882353%);fill-opacity:1;" d="M 22.359375 5.203125 C 23.375 3.640625 23.515625 2.453125 23.515625 2.03125 L 22.90625 1.484375 C 22.5625 3.21875 21.9375 4.234375 21.375 4.828125 C 21.640625 5 22.015625 5.125 22.359375 5.203125 Z M 22.359375 5.203125 "/>
<path style=" stroke:none;fill-rule:nonzero;fill:rgb(49.411765%,43.529412%,51.372549%);fill-opacity:1;" d="M 20.5 11.875 L 26.609375 11.875 C 26.671875 10.9375 26.640625 10.171875 26.625 9.9375 C 26.53125 9.71875 26.453125 9.484375 26.390625 9.265625 L 20.5 9.265625 Z M 20.84375 10.234375 C 20.9375 10.140625 21.0625 10.09375 21.203125 10.09375 C 21.328125 10.09375 21.453125 10.140625 21.546875 10.234375 C 21.640625 10.328125 21.703125 10.453125 21.703125 10.59375 C 21.703125 10.71875 21.640625 10.859375 21.546875 10.953125 C 21.453125 11.046875 21.328125 11.09375 21.203125 11.09375 C 21.0625 11.09375 20.9375 11.046875 20.84375 10.953125 C 20.75 10.859375 20.6875 10.71875 20.6875 10.59375 C 20.6875 10.453125 20.75 10.328125 20.84375 10.234375 Z M 20.84375 10.234375 "/>
<path style=" stroke:none;fill-rule:nonzero;fill:rgb(49.411765%,43.529412%,51.372549%);fill-opacity:1;" d="M 27.09375 3.859375 C 27.046875 4.28125 26.96875 4.921875 26.96875 5.671875 L 28 4.359375 C 27.625 4.09375 27.3125 3.9375 27.09375 3.859375 Z M 27.09375 3.859375 "/>
<path style=" stroke:none;fill-rule:nonzero;fill:rgb(78.039216%,74.509804%,65.882353%);fill-opacity:1;" d="M 20.5 12.890625 L 20.5 14.515625 C 20.5 14.796875 20.28125 15.03125 20 15.03125 C 19.71875 15.03125 19.5 14.796875 19.5 14.515625 L 19.5 12.890625 L 13.484375 12.890625 C 13.53125 13.296875 13.609375 13.734375 13.71875 14.140625 C 13.828125 14.59375 13.890625 15.03125 13.921875 15.5 L 26.078125 15.5 C 26.109375 15.046875 26.171875 14.59375 26.28125 14.171875 C 26.390625 13.75 26.46875 13.3125 26.515625 12.890625 Z M 21.546875 14.5625 C 21.453125 14.65625 21.328125 14.71875 21.203125 14.71875 C 21.0625 14.71875 20.9375 14.65625 20.84375 14.5625 C 20.75 14.46875 20.6875 14.34375 20.6875 14.203125 C 20.6875 14.078125 20.75 13.953125 20.84375 13.859375 C 20.9375 13.765625 21.0625 13.703125 21.203125 13.703125 C 21.328125 13.703125 21.453125 13.765625 21.546875 13.859375 C 21.640625 13.953125 21.703125 14.078125 21.703125 14.203125 C 21.703125 14.34375 21.640625 14.46875 21.546875 14.5625 Z M 21.546875 14.5625 "/>
<path style=" stroke:none;fill-rule:nonzero;fill:rgb(49.411765%,43.529412%,51.372549%);fill-opacity:1;" d="M 13.9375 16.5 C 13.921875 17.375 13.796875 18.25 13.640625 19.109375 L 26.359375 19.109375 C 26.203125 18.25 26.078125 17.375 26.046875 16.5 Z M 13.9375 16.5 "/>
<path style=" stroke:none;fill-rule:nonzero;fill:rgb(78.039216%,74.509804%,65.882353%);fill-opacity:1;" d="M 25.953125 5.640625 L 23.265625 5.640625 C 23.1875 5.78125 23.09375 5.90625 23 6.046875 C 22.90625 6.1875 22.75 6.265625 22.59375 6.265625 C 22.5625 6.265625 21.375 6.125 20.546875 5.453125 C 20.53125 5.46875 20.515625 5.46875 20.5 5.484375 L 20.5 8.265625 L 26.15625 8.265625 C 25.984375 7.34375 25.9375 6.4375 25.953125 5.640625 Z M 21.546875 7.328125 C 21.453125 7.421875 21.328125 7.484375 21.203125 7.484375 C 21.0625 7.484375 20.9375 7.421875 20.84375 7.328125 C 20.75 7.234375 20.6875 7.109375 20.6875 6.984375 C 20.6875 6.84375 20.75 6.71875 20.84375 6.625 C 20.9375 6.53125 21.0625 6.46875 21.203125 6.46875 C 21.328125 6.46875 21.453125 6.53125 21.546875 6.625 C 21.640625 6.71875 21.703125 6.84375 21.703125 6.984375 C 21.703125 7.109375 21.640625 7.234375 21.546875 7.328125 Z M 21.546875 7.328125 "/>
<path style=" stroke:none;fill-rule:nonzero;fill:rgb(49.411765%,43.529412%,51.372549%);fill-opacity:1;" d="M 19.5 11.875 L 19.5 9.265625 L 13.609375 9.265625 C 13.53125 9.484375 13.46875 9.703125 13.375 9.921875 C 13.359375 10.15625 13.328125 10.921875 13.390625 11.875 Z M 19.5 11.875 "/>
<path style=" stroke:none;fill-rule:nonzero;fill:rgb(78.039216%,74.509804%,65.882353%);fill-opacity:1;" d="M 26.546875 20.125 L 13.4375 20.125 C 13.390625 20.390625 13.140625 21.515625 13.078125 21.796875 C 13.015625 22.0625 12.9375 22.375 12.859375 22.734375 L 27.140625 22.734375 C 27.0625 22.390625 26.984375 22.078125 26.921875 21.8125 C 26.859375 21.53125 26.609375 20.40625 26.546875 20.125 Z M 26.546875 20.125 "/>
<path style=" stroke:none;fill-rule:nonzero;fill:rgb(49.411765%,43.529412%,51.372549%);fill-opacity:1;" d="M 12.1875 26.359375 L 27.8125 26.359375 C 27.671875 25.359375 27.515625 24.484375 27.359375 23.734375 L 12.640625 23.734375 C 12.484375 24.484375 12.328125 25.359375 12.1875 26.359375 Z M 12.1875 26.359375 "/>
<path style=" stroke:none;fill-rule:nonzero;fill:rgb(78.039216%,74.509804%,65.882353%);fill-opacity:1;" d="M 28.765625 5 L 27.03125 7.234375 C 27.09375 7.953125 27.234375 8.703125 27.484375 9.390625 L 29.875 6.296875 C 29.484375 5.75 29.109375 5.328125 28.765625 5 Z M 28.765625 5 "/>
<path style=" stroke:none;fill-rule:nonzero;fill:rgb(49.411765%,43.529412%,51.372549%);fill-opacity:1;" d="M 27.859375 10.5625 L 28.34375 10.640625 L 30.703125 7.515625 C 30.640625 7.390625 30.5625 7.28125 30.484375 7.15625 Z M 27.859375 10.5625 "/>
<path style=" stroke:none;fill-rule:nonzero;fill:rgb(78.039216%,74.509804%,65.882353%);fill-opacity:1;" d="M 11.84375 29.96875 L 28.15625 29.96875 C 28.109375 29.03125 28.03125 28.171875 27.9375 27.359375 L 12.0625 27.359375 C 11.96875 28.171875 11.890625 29.03125 11.84375 29.96875 Z M 11.84375 29.96875 "/>
<path style=" stroke:none;fill-rule:nonzero;fill:rgb(49.411765%,43.529412%,51.372549%);fill-opacity:1;" d="M 12.90625 3.84375 C 12.6875 3.921875 12.375 4.0625 11.984375 4.34375 L 13.03125 5.671875 C 13.03125 4.921875 12.953125 4.265625 12.90625 3.84375 Z M 12.90625 3.84375 "/>
<path style=" stroke:none;fill-rule:nonzero;fill:rgb(49.411765%,43.529412%,51.372549%);fill-opacity:1;" d="M 11.8125 33.59375 L 28.1875 33.59375 C 28.21875 32.671875 28.21875 31.8125 28.1875 30.984375 L 11.8125 30.984375 C 11.78125 31.8125 11.78125 32.671875 11.8125 33.59375 Z M 11.8125 33.59375 "/>
<path style=" stroke:none;fill-rule:nonzero;fill:rgb(78.039216%,74.509804%,65.882353%);fill-opacity:1;" d="M 11.21875 4.984375 C 10.875 5.328125 10.5 5.75 10.109375 6.28125 L 12.5 9.390625 C 12.765625 8.6875 12.90625 7.953125 12.96875 7.21875 Z M 11.21875 4.984375 "/>
<path style=" stroke:none;fill-rule:nonzero;fill:rgb(49.411765%,43.529412%,51.372549%);fill-opacity:1;" d="M 9.296875 7.5 L 11.65625 10.609375 L 12.125 10.546875 L 9.5 7.15625 C 9.4375 7.265625 9.359375 7.375 9.296875 7.5 Z M 9.296875 7.5 "/>
<path style=" stroke:none;fill-rule:nonzero;fill:rgb(49.411765%,43.529412%,51.372549%);fill-opacity:1;" d="M 12.328125 39 L 27.671875 39 C 27.71875 38.734375 27.75 38.46875 27.796875 38.21875 L 12.21875 38.21875 C 12.25 38.46875 12.28125 38.734375 12.328125 39 Z M 12.328125 39 "/>
<path style=" stroke:none;fill-rule:nonzero;fill:rgb(78.039216%,74.509804%,65.882353%);fill-opacity:1;" d="M 12.078125 37.203125 L 27.921875 37.203125 C 28.015625 36.3125 28.09375 35.4375 28.140625 34.59375 L 11.859375 34.59375 C 11.90625 35.4375 11.984375 36.3125 12.078125 37.203125 Z M 12.078125 37.203125 "/>
<path style=" stroke:none;fill-rule:nonzero;fill:rgb(24.705882%,20.784314%,18.431373%);fill-opacity:1;" d="M 26.765625 2.765625 L 24.53125 2.03125 C 24.53125 1.859375 24.515625 1.75 24.515625 1.734375 C 24.5 1.625 24.4375 1.5 24.359375 1.421875 L 22.90625 0.125 C 22.8125 0.046875 22.6875 0 22.5625 0 L 17.4375 0 C 17.3125 0 17.1875 0.046875 17.09375 0.125 L 15.640625 1.421875 C 15.5625 1.5 15.5 1.625 15.484375 1.734375 C 15.484375 1.75 15.46875 1.84375 15.46875 2.015625 L 13.234375 2.75 C 12.703125 2.78125 10.6875 3.15625 8.25 7.28125 C 8.140625 7.453125 8.15625 7.671875 8.28125 7.828125 L 11.03125 11.46875 C 11.125 11.59375 11.28125 11.640625 11.4375 11.65625 C 11.5 11.671875 12.359375 11.53125 12.359375 11.53125 C 12.390625 12.375 12.5 13.40625 12.75 14.390625 C 13.359375 16.78125 12.15625 21.28125 12.09375 21.5625 C 11.5 24.03125 9.921875 30.609375 11.40625 39.5625 C 11.4375 39.796875 11.640625 40 11.890625 40 L 28.109375 40 C 28.34375 40 28.5625 39.828125 28.59375 39.578125 C 30.078125 30.625 28.5 24.0625 27.90625 21.578125 C 27.84375 21.3125 26.640625 16.921875 27.25 14.421875 C 27.5 13.421875 27.59375 12.390625 27.625 11.546875 C 27.625 11.546875 28.484375 11.6875 28.5625 11.6875 C 28.71875 11.671875 28.875 11.609375 28.96875 11.484375 L 31.71875 7.859375 C 31.84375 7.6875 31.859375 7.46875 31.75 7.296875 C 29.3125 3.171875 27.296875 2.796875 26.765625 2.765625 Z M 27.09375 3.859375 C 27.3125 3.9375 27.625 4.09375 28 4.359375 L 26.96875 5.671875 C 26.96875 4.921875 27.046875 4.28125 27.09375 3.859375 Z M 26.625 9.9375 C 26.640625 10.171875 26.671875 10.9375 26.609375 11.875 L 20.5 11.875 L 20.5 9.265625 L 26.390625 9.265625 C 26.453125 9.484375 26.53125 9.71875 26.625 9.9375 Z M 26.28125 14.171875 C 26.171875 14.59375 26.109375 15.046875 26.078125 15.5 L 13.921875 15.5 C 13.890625 15.03125 13.828125 14.578125 13.71875 14.140625 C 13.609375 13.734375 13.53125 13.296875 13.484375 12.890625 L 19.5 12.890625 L 19.5 14.515625 C 19.5 14.796875 19.71875 15.03125 20 15.03125 C 20.28125 15.03125 20.5 14.796875 20.5 14.515625 L 20.5 12.890625 L 26.515625 12.890625 C 26.46875 13.3125 26.390625 13.75 26.28125 14.171875 Z M 26.359375 19.109375 L 13.640625 19.109375 C 13.796875 18.25 13.921875 17.375 13.9375 16.5 L 26.046875 16.5 C 26.078125 17.375 26.203125 18.25 26.359375 19.109375 Z M 20.5 8.265625 L 20.5 5.484375 C 20.515625 5.46875 20.53125 5.46875 20.546875 5.453125 C 21.375 6.125 22.5625 6.265625 22.59375 6.265625 C 22.75 6.265625 22.90625 6.1875 23 6.046875 C 23.09375 5.90625 23.1875 5.78125 23.265625 5.640625 L 25.953125 5.640625 C 25.9375 6.4375 25.984375 7.34375 26.15625 8.265625 Z M 24.390625 3.046875 L 26.109375 3.609375 C 26.078125 3.875 26.03125 4.21875 26 4.640625 L 23.828125 4.640625 C 24.125 4.03125 24.296875 3.5 24.390625 3.046875 Z M 22.90625 1.484375 L 23.515625 2.03125 C 23.515625 2.453125 23.375 3.640625 22.359375 5.203125 C 22.015625 5.125 21.640625 5 21.375 4.828125 C 21.9375 4.234375 22.5625 3.21875 22.90625 1.484375 Z M 21.984375 1 C 21.5 3.75 20.34375 4.453125 20 4.609375 C 19.921875 4.578125 18.421875 4.03125 18.015625 1 Z M 17.09375 1.484375 C 17.4375 3.21875 18.0625 4.234375 18.625 4.828125 C 18.359375 4.984375 17.984375 5.125 17.640625 5.203125 C 16.625 3.640625 16.484375 2.453125 16.484375 2.03125 Z M 15.59375 3.03125 C 15.703125 3.46875 15.875 4.015625 16.171875 4.640625 L 14 4.640625 C 13.96875 4.21875 13.921875 3.859375 13.890625 3.59375 Z M 14.046875 5.640625 L 16.734375 5.640625 C 16.8125 5.78125 16.90625 5.90625 17 6.046875 C 17.09375 6.1875 17.25 6.265625 17.40625 6.265625 C 17.4375 6.265625 18.703125 6.09375 19.453125 5.453125 C 19.46875 5.46875 19.484375 5.46875 19.5 5.484375 L 19.5 8.265625 L 13.84375 8.265625 C 14.015625 7.34375 14.0625 6.4375 14.046875 5.640625 Z M 13.375 9.921875 C 13.46875 9.703125 13.53125 9.484375 13.609375 9.265625 L 19.5 9.265625 L 19.5 11.875 L 13.390625 11.875 C 13.328125 10.921875 13.359375 10.15625 13.375 9.921875 Z M 12.90625 3.84375 C 12.953125 4.265625 13.03125 4.921875 13.03125 5.671875 L 11.984375 4.34375 C 12.375 4.0625 12.6875 3.921875 12.90625 3.84375 Z M 11.65625 10.609375 L 9.296875 7.5 C 9.359375 7.375 9.4375 7.265625 9.5 7.15625 L 12.125 10.546875 Z M 12.5 9.390625 L 10.109375 6.28125 C 10.5 5.75 10.875 5.328125 11.21875 4.984375 L 12.96875 7.21875 C 12.90625 7.953125 12.765625 8.6875 12.5 9.390625 Z M 27.671875 39 L 12.328125 39 C 12.28125 38.734375 12.25 38.46875 12.21875 38.21875 L 27.796875 38.21875 C 27.75 38.46875 27.71875 38.734375 27.671875 39 Z M 27.921875 37.203125 L 12.078125 37.203125 C 11.984375 36.3125 11.90625 35.4375 11.859375 34.59375 L 28.140625 34.59375 C 28.09375 35.4375 28.015625 36.3125 27.921875 37.203125 Z M 28.1875 33.59375 L 11.8125 33.59375 C 11.78125 32.671875 11.78125 31.8125 11.8125 30.984375 L 28.1875 30.984375 C 28.21875 31.8125 28.21875 32.671875 28.1875 33.59375 Z M 27.9375 27.359375 C 28.03125 28.171875 28.109375 29.03125 28.15625 29.96875 L 11.84375 29.96875 C 11.890625 29.03125 11.96875 28.171875 12.0625 27.359375 Z M 27.8125 26.359375 L 12.1875 26.359375 C 12.328125 25.359375 12.484375 24.484375 12.640625 23.734375 L 27.359375 23.734375 C 27.515625 24.484375 27.671875 25.359375 27.8125 26.359375 Z M 27.140625 22.734375 L 12.859375 22.734375 C 12.9375 22.375 13.015625 22.0625 13.078125 21.796875 C 13.140625 21.515625 13.390625 20.390625 13.4375 20.125 L 26.546875 20.125 C 26.609375 20.40625 26.859375 21.53125 26.921875 21.8125 C 26.984375 22.078125 27.0625 22.390625 27.140625 22.734375 Z M 27.484375 9.390625 C 27.234375 8.703125 27.09375 7.953125 27.03125 7.234375 L 28.765625 5 C 29.109375 5.328125 29.484375 5.75 29.890625 6.296875 Z M 28.34375 10.640625 L 27.859375 10.5625 L 30.484375 7.15625 C 30.5625 7.28125 30.640625 7.390625 30.703125 7.515625 Z M 28.34375 10.640625 "/>
<path style=" stroke:none;fill-rule:nonzero;fill:rgb(24.705882%,20.784314%,18.431373%);fill-opacity:1;" d="M 21.203125 6.46875 C 21.0625 6.46875 20.9375 6.53125 20.84375 6.625 C 20.75 6.71875 20.6875 6.84375 20.6875 6.984375 C 20.6875 7.109375 20.75 7.234375 20.84375 7.328125 C 20.9375 7.421875 21.0625 7.484375 21.203125 7.484375 C 21.328125 7.484375 21.453125 7.421875 21.546875 7.328125 C 21.640625 7.234375 21.703125 7.109375 21.703125 6.984375 C 21.703125 6.84375 21.640625 6.71875 21.546875 6.625 C 21.453125 6.53125 21.328125 6.46875 21.203125 6.46875 Z M 21.203125 6.46875 "/>
<path style=" stroke:none;fill-rule:nonzero;fill:rgb(24.705882%,20.784314%,18.431373%);fill-opacity:1;" d="M 21.203125 11.09375 C 21.328125 11.09375 21.453125 11.046875 21.546875 10.953125 C 21.640625 10.859375 21.703125 10.71875 21.703125 10.59375 C 21.703125 10.453125 21.640625 10.328125 21.546875 10.234375 C 21.453125 10.140625 21.328125 10.09375 21.203125 10.09375 C 21.0625 10.09375 20.9375 10.140625 20.84375 10.234375 C 20.75 10.328125 20.6875 10.453125 20.6875 10.59375 C 20.6875 10.71875 20.75 10.859375 20.84375 10.953125 C 20.9375 11.046875 21.0625 11.09375 21.203125 11.09375 Z M 21.203125 11.09375 "/>
<path style=" stroke:none;fill-rule:nonzero;fill:rgb(24.705882%,20.784314%,18.431373%);fill-opacity:1;" d="M 21.203125 13.703125 C 21.0625 13.703125 20.9375 13.765625 20.84375 13.859375 C 20.75 13.953125 20.6875 14.078125 20.6875 14.203125 C 20.6875 14.34375 20.75 14.46875 20.84375 14.5625 C 20.9375 14.65625 21.0625 14.71875 21.203125 14.71875 C 21.328125 14.71875 21.453125 14.65625 21.546875 14.5625 C 21.640625 14.46875 21.703125 14.34375 21.703125 14.203125 C 21.703125 14.078125 21.640625 13.953125 21.546875 13.859375 C 21.453125 13.765625 21.328125 13.703125 21.203125 13.703125 Z M 21.203125 13.703125 "/>
</g>
</svg>
